<svg width="240" height="180" viewBox="0 0 240 180" fill="none" xmlns="http://www.w3.org/2000/svg">
  <defs>
    <linearGradient id="dogBg" x1="18" y1="14" x2="206" y2="170" gradientUnits="userSpaceOnUse">
      <stop stop-color="#F9FCFF"/>
      <stop offset="1" stop-color="#E8F5FF"/>
    </linearGradient>
    <linearGradient id="dogFur" x1="89" y1="67" x2="159" y2="168" gradientUnits="userSpaceOnUse">
      <stop stop-color="#F1BC74"/>
      <stop offset="1" stop-color="#D48A48"/>
    </linearGradient>
    <linearGradient id="dogEar" x1="90" y1="79" x2="116" y2="128" gradientUnits="userSpaceOnUse">
      <stop stop-color="#8B5C44"/>
      <stop offset="1" stop-color="#6E4431"/>
    </linearGradient>
  </defs>

  <rect width="240" height="180" rx="26" fill="url(#dogBg)"/>
  <ellipse cx="122" cy="149" rx="56" ry="14" fill="#D5E8F8"/>
  <circle cx="72" cy="39" r="15" fill="#FFF0A9"/>
  <circle cx="181" cy="47" r="12" fill="#D8F4FF"/>

  <path d="M78 116C78 85.0721 103.072 60 134 60C164.928 60 190 85.0721 190 116V120C190 150.928 164.928 176 134 176C103.072 176 78 150.928 78 120V116Z" fill="url(#dogFur)"/>
  <ellipse cx="109" cy="98" rx="20" ry="29" transform="rotate(-24 109 98)" fill="url(#dogEar)"/>
  <ellipse cx="157" cy="98" rx="20" ry="29" transform="rotate(28 157 98)" fill="url(#dogEar)"/>
  <ellipse cx="134" cy="123" rx="31" ry="26" fill="#FFE8C6"/>
  <circle cx="114" cy="113" r="11" fill="#FFFFFF"/>
  <circle cx="154" cy="113" r="11" fill="#FFFFFF"/>
  <circle cx="116" cy="114" r="5" fill="#2E244B"/>
  <circle cx="152" cy="114" r="5" fill="#2E244B"/>
  <circle cx="112" cy="110" r="2.4" fill="#FFFFFF"/>
  <circle cx="148" cy="110" r="2.4" fill="#FFFFFF"/>
  <path d="M124 127C124 122.582 127.582 119 132 119H136C140.418 119 144 122.582 144 127V131C144 135.418 140.418 139 136 139H132C127.582 139 124 135.418 124 131V127Z" fill="#2E244B"/>
  <path d="M134 140C127 149 117 153 105 152" stroke="#2E244B" stroke-width="5.5" stroke-linecap="round"/>
  <path d="M134 140C141 149 151 153 163 152" stroke="#2E244B" stroke-width="5.5" stroke-linecap="round"/>
  <path d="M166 68C183 68 196 80 197 95V114" stroke="#61C7FF" stroke-width="18" stroke-linecap="round"/>
  <path d="M77 114V95C77 80 90 68 107 68" stroke="#61C7FF" stroke-width="18" stroke-linecap="round"/>
  <path d="M181 61C190 63 198 69 202 77" stroke="#B3E8FF" stroke-width="6" stroke-linecap="round"/>
</svg>
