<svg width="320" height="180" viewBox="0 0 320 180" fill="none" xmlns="http://www.w3.org/2000/svg">
  <rect width="320" height="180" rx="28" fill="#F2F7FF"/>
  <rect x="74" y="34" width="108" height="122" rx="16" fill="#fff"/>
  <rect x="88" y="55" width="78" height="8" rx="4" fill="#D7E6FF"/>
  <rect x="88" y="75" width="58" height="8" rx="4" fill="#D7E6FF"/>
  <rect x="88" y="95" width="72" height="8" rx="4" fill="#D7E6FF"/>
  <rect x="88" y="115" width="48" height="8" rx="4" fill="#D7E6FF"/>
  <path d="M201 104L234 56L258 77L226 126L199 130L201 104Z" fill="#FF8459"/>
  <path d="M234 56L243 42L268 59L258 77L234 56Z" fill="#FFCC56"/>
  <path d="M210 130L200 140L199 130H210Z" fill="#6B5BEF"/>
  <circle cx="95" cy="49" r="5" fill="#8D74FF"/>
  <circle cx="95" cy="69" r="5" fill="#8D74FF"/>
  <circle cx="95" cy="89" r="5" fill="#8D74FF"/>
  <circle cx="95" cy="109" r="5" fill="#8D74FF"/>
</svg>
