<svg width="560" height="420" viewBox="0 0 560 420" fill="none" xmlns="http://www.w3.org/2000/svg">
  <defs>
    <linearGradient id="heroBg" x1="48" y1="38" x2="495" y2="374" gradientUnits="userSpaceOnUse">
      <stop stop-color="#F7F1FF"/>
      <stop offset="0.55" stop-color="#E8DEFF"/>
      <stop offset="1" stop-color="#D8CCFF"/>
    </linearGradient>
    <linearGradient id="heroPanel" x1="111" y1="106" x2="468" y2="323" gradientUnits="userSpaceOnUse">
      <stop stop-color="#FFFFFF" stop-opacity="0.34"/>
      <stop offset="1" stop-color="#FFFFFF" stop-opacity="0.08"/>
    </linearGradient>
    <linearGradient id="heroBody" x1="214" y1="124" x2="378" y2="335" gradientUnits="userSpaceOnUse">
      <stop stop-color="#9F89FF"/>
      <stop offset="0.58" stop-color="#7556F0"/>
      <stop offset="1" stop-color="#5330D6"/>
    </linearGradient>
    <linearGradient id="heroEar" x1="235" y1="92" x2="292" y2="164" gradientUnits="userSpaceOnUse">
      <stop stop-color="#8D74FB"/>
      <stop offset="1" stop-color="#6440E7"/>
    </linearGradient>
    <linearGradient id="heroPencil" x1="388" y1="98" x2="442" y2="313" gradientUnits="userSpaceOnUse">
      <stop stop-color="#FFE27A"/>
      <stop offset="0.6" stop-color="#FFBF46"/>
      <stop offset="1" stop-color="#FF9A2E"/>
    </linearGradient>
    <radialGradient id="heroGlow" cx="0" cy="0" r="1" gradientUnits="userSpaceOnUse" gradientTransform="translate(282 272) rotate(90) scale(128 140)">
      <stop stop-color="#9B80FF" stop-opacity="0.44"/>
      <stop offset="1" stop-color="#9B80FF" stop-opacity="0"/>
    </radialGradient>
    <filter id="drop" x="154" y="70" width="286" height="296" filterUnits="userSpaceOnUse" color-interpolation-filters="sRGB">
      <feDropShadow dx="0" dy="28" stdDeviation="24" flood-color="#6041DA" flood-opacity="0.28"/>
    </filter>
  </defs>

  <rect width="560" height="420" rx="38" fill="url(#heroBg)"/>
  <circle cx="92" cy="304" r="28" fill="#C9FFF4" fill-opacity="0.78"/>
  <circle cx="470" cy="302" r="26" fill="#FFD4EE" fill-opacity="0.78"/>
  <circle cx="449" cy="119" r="18" fill="#E4D9FF"/>
  <circle cx="140" cy="108" r="14" fill="#FFF0A3"/>
  <rect x="108" y="102" width="364" height="244" rx="36" fill="url(#heroPanel)" stroke="rgba(255,255,255,0.35)"/>
  <rect x="156" y="138" width="273" height="204" rx="30" fill="rgba(255,255,255,0.18)" stroke="rgba(255,255,255,0.22)"/>
  <ellipse cx="281" cy="316" rx="138" ry="22" fill="#CDBEFF"/>
  <ellipse cx="281" cy="322" rx="118" ry="18" fill="#BCA9FF" fill-opacity="0.6"/>
  <ellipse cx="282" cy="274" rx="145" ry="92" fill="url(#heroGlow)"/>

  <path d="M208 124L183 92C175 82 176 66 188 58C200 50 216 53 224 64L245 95L208 124Z" fill="url(#heroEar)"/>
  <path d="M355 128L386 96C396 86 397 70 387 60C376 50 360 53 352 64L321 107L355 128Z" fill="url(#heroEar)"/>

  <g filter="url(#drop)">
    <path d="M240 124C210.177 124 186 148.177 186 178V242C186 300.542 233.458 348 292 348H305C340.346 348 369 319.346 369 284V202C369 159.474 334.526 125 292 125L240 124Z" fill="url(#heroBody)"/>
  </g>

  <ellipse cx="276" cy="198" rx="54" ry="43" fill="#6346E1"/>
  <rect x="224" y="167" width="67" height="64" rx="32" fill="#FFFFFF"/>
  <rect x="278" y="163" width="78" height="70" rx="35" fill="#F7F4FF"/>
  <rect x="267" y="186" width="49" height="16" rx="8" fill="#EFE8FF"/>
  <circle cx="248" cy="199" r="13" fill="#241B4B"/>
  <circle cx="329" cy="200" r="12" fill="#241B4B"/>
  <circle cx="244" cy="194" r="4" fill="#FFFFFF"/>
  <circle cx="325" cy="195" r="4" fill="#FFFFFF"/>
  <path d="M286 225C297.801 225 307.367 234.149 307.367 245.436V249L275.633 244.641C275.633 233.354 285.199 225 297 225H286Z" fill="#221A48"/>
  <path d="M271 252C286 267 307 271 327 262" stroke="#FFC957" stroke-width="12" stroke-linecap="round"/>
  <path d="M231 245C240 238 253 239 262 246" stroke="#FF8AA8" stroke-width="11" stroke-linecap="round"/>
  <path d="M324 245C333 238 346 239 355 246" stroke="#FF8AA8" stroke-width="11" stroke-linecap="round"/>
  <path d="M248 278C263 288 281 292 298 291" stroke="#8E76FF" stroke-width="10" stroke-linecap="round" opacity="0.35"/>

  <path d="M395 82L433 294" stroke="url(#heroPencil)" stroke-width="34" stroke-linecap="round"/>
  <path d="M378 70L416 282" stroke="#37235F" stroke-width="11" stroke-linecap="round"/>
  <path d="M383 50L417 64L400 89L383 50Z" fill="#1C153B"/>
  <path d="M421 323L448 297L425 288L421 323Z" fill="#FFD1A8"/>

  <path d="M74 279C97 265 137 264 156 289C167 303 158 320 138 327C118 334 88 332 73 317C58 303 58 289 74 279Z" fill="#FFD952"/>
  <text x="113" y="304" text-anchor="middle" fill="#3F2C72" font-family="Trebuchet MS, Arial, sans-serif" font-size="29" font-weight="800">Let's learn!</text>
</svg>
