<svg width="320" height="180" viewBox="0 0 320 180" fill="none" xmlns="http://www.w3.org/2000/svg">
  <rect width="320" height="180" rx="28" fill="#EEF8FF"/>
  <path d="M83 103C83 67.1015 112.102 38 148 38C183.899 38 213 67.1015 213 103V121H83V103Z" fill="#6F7FF5"/>
  <rect x="74" y="98" width="38" height="52" rx="18" fill="#2C2F69"/>
  <rect x="184" y="98" width="38" height="52" rx="18" fill="#2C2F69"/>
  <rect x="86" y="107" width="17" height="34" rx="8.5" fill="#A9D7FF"/>
  <rect x="193" y="107" width="17" height="34" rx="8.5" fill="#A9D7FF"/>
  <circle cx="147" cy="88" r="26" fill="#fff" fill-opacity=".2"/>
  <path d="M238 58C248 65 255 77 257 92" stroke="#8BD4FF" stroke-width="10" stroke-linecap="round"/>
  <path d="M257 47C271 57 281 74 284 95" stroke="#8BD4FF" stroke-width="8" stroke-linecap="round"/>
</svg>
