<svg width="240" height="160" viewBox="0 0 240 160" fill="none" xmlns="http://www.w3.org/2000/svg">
  <defs>
    <linearGradient id="mountBg" x1="18" y1="18" x2="221" y2="149" gradientUnits="userSpaceOnUse">
      <stop stop-color="#EEF9FF"/>
      <stop offset="1" stop-color="#DCEFFF"/>
    </linearGradient>
    <linearGradient id="mountFar" x1="94" y1="44" x2="170" y2="134" gradientUnits="userSpaceOnUse">
      <stop stop-color="#86B8FF"/>
      <stop offset="1" stop-color="#6495F0"/>
    </linearGradient>
    <linearGradient id="mountNear" x1="109" y1="31" x2="198" y2="137" gradientUnits="userSpaceOnUse">
      <stop stop-color="#648FF4"/>
      <stop offset="1" stop-color="#486DE3"/>
    </linearGradient>
  </defs>

  <rect width="240" height="160" rx="26" fill="url(#mountBg)"/>
  <circle cx="50" cy="42" r="17" fill="#FFF0A2"/>
  <path d="M27 133L92 67L145 133H27Z" fill="url(#mountFar)"/>
  <path d="M91 133L158 41L223 133H91Z" fill="url(#mountNear)"/>
  <path d="M142 63L158 41L176 63H142Z" fill="#FFFFFF"/>
  <path d="M80 83L92 67L105 83H80Z" fill="#FFFFFF"/>
  <path d="M0 132C29 121 54 121 84 132C118 145 156 146 240 122V160H0V132Z" fill="#80D98D"/>
  <path d="M0 144C48 136 74 136 108 146C141 156 173 156 240 141V160H0V144Z" fill="#65C875"/>
  <path d="M173 118L185 102L188 118H173Z" fill="#FFE37A"/>
</svg>
